<svg width="82" height="50" viewBox="0 0 1182 550" fill="none" xmlns="http://www.w3.org/2000/svg">
<g clip-path="url(#clip0)">
<path d="M160.84 131.08C160.84 126.57 160.73 122.27 160.53 118.16C160.32 114.07 160.01 109.76 159.61 105.24C159.61 101.15 159.81 97.24 160.22 93.55C160.62 89.86 161.64 86.17 163.27 82.48C169.76 67.72 180.31 63.01 194.92 68.33C204.24 72.02 210.43 76.12 213.48 80.63C216.52 85.15 217.64 92.73 216.82 103.39C215.99 116.52 214.98 129.74 213.74 143.06C212.51 156.39 211.48 169.61 210.67 182.73C209.84 187.25 209.13 191.65 208.52 195.95C207.9 200.26 208 204.67 208.83 209.17C209.23 213.69 210.57 218.4 212.83 223.32C215.08 228.24 215.8 232.76 214.98 236.85C214.15 241.37 211.9 245.57 208.21 249.46C204.52 253.36 202.26 257.76 201.44 262.68C199.38 274.16 197.34 285.54 195.29 296.82C193.23 308.1 193.23 319.68 195.29 331.57C196.92 340.59 196 348.18 192.52 354.33C189.03 360.48 183.8 366.02 176.84 370.94C172.32 374.22 167.71 375.34 163 374.32C158.28 373.29 154.9 369.91 152.85 364.17C150.39 358.02 148.85 351.67 148.24 345.1C147.62 338.55 147.32 331.98 147.32 325.42C147.32 317.64 147.32 309.95 147.32 302.36C147.32 294.78 147.11 286.89 146.7 278.68C145.87 272.94 142.8 270.68 137.47 271.91C128.86 273.55 120.25 275.09 111.64 276.52C103.03 277.96 94.42 279.7 85.81 281.75C78.83 283.39 74.94 288.11 74.12 295.9C73.29 302.05 72.68 308.11 72.28 314.04C71.87 319.99 71.25 326.03 70.44 332.18C69.21 342.85 65.52 351.35 59.37 357.7C53.22 364.06 45.43 368.88 36 372.15C32.31 373.38 29.13 373.17 26.47 371.53C23.8 369.89 22.26 367.02 21.86 362.92C21.86 354.31 21.75 345.6 21.55 336.78C21.34 327.97 21.24 319.05 21.24 310.03C21.24 303.88 20.41 298.25 18.78 293.12C17.14 288 13.45 283.18 7.70996 278.67C-2.54004 270.89 -2.54004 263.51 7.70996 256.53C14.68 251.61 19.09 246.07 20.93 239.92C22.77 233.77 23.28 226.8 22.47 219.01C21.64 205.48 21.24 191.85 21.24 178.11C21.24 164.38 18.98 150.74 14.47 137.21C12.41 130.24 13.03 124.09 16.31 118.76C19.59 113.44 24.09 109.75 29.84 107.69C36.39 105.64 43.57 106.06 51.37 108.92C59.15 111.79 64.29 116.3 66.75 122.45C69.61 130.24 71.46 138.65 72.29 147.67C73.52 159.57 74.34 171.15 74.75 182.42C75.15 193.7 75.77 205.28 76.59 217.17C76.99 220.04 77.21 222.81 77.21 225.47C77.21 228.14 77.41 230.91 77.83 233.77C78.23 239.52 81.92 242.79 88.9 243.61C98.33 244.44 107.55 243.61 116.58 241.15C125.59 238.69 134.62 236.03 143.64 233.15C146.5 232.33 148.66 230.69 150.1 228.23C151.53 225.77 152.45 223.11 152.87 220.23C153.75 205.47 155.51 190.71 158.15 175.95C160.75 161.22 161.65 146.25 160.84 131.08Z" fill="#FF452B"/>
<path d="M372.31 329.27C367.91 329.27 363.41 329.09 358.82 328.72C354.23 328.36 349.55 327.81 344.78 327.07C335.97 325.97 327.07 323.86 318.08 320.74C309.08 317.63 300.74 312.03 293.03 303.95C286.05 296.24 279.45 287.62 273.21 278.08C266.96 268.54 263.11 257.9 261.65 246.15C259.81 229.63 259.53 213.94 260.82 199.08C262.1 184.22 264.76 169.82 268.8 155.86C273.2 141.55 279.26 127.78 286.97 114.57C294.68 101.36 304.04 88.88 315.05 77.13C322.76 69.42 331.38 64.11 340.92 61.16L341.47 60.61C343.3 59.88 345.05 59.33 346.7 58.96C348.35 58.6 350.09 58.41 351.93 58.41C353.76 58.41 355.41 58.78 356.88 59.51C365.32 64.65 374.5 67.22 384.41 67.22C387.34 67.22 390 67.13 392.39 66.94C394.77 66.76 397.43 66.48 400.37 66.11C402.2 65.75 403.95 65.56 405.6 65.56C407.25 65.56 408.99 65.38 410.83 65.01H417.99C449.55 65.01 474.7 74.74 493.41 94.19C503.68 104.84 511.48 117.68 516.81 132.73C522.13 147.78 524.42 164.11 523.69 181.73C521.85 209.26 514.51 233.85 501.67 255.5C488.82 277.16 471.02 294.96 448.27 308.9C426.63 322.49 401.3 329.27 372.31 329.27ZM404.79 98.6C397.08 98.6 389.18 99.43 381.12 101.08C373.04 102.73 365.34 105.12 358 108.24C350.65 111.36 344.05 115.31 338.18 120.08C332.31 124.85 327.9 130.36 324.97 136.6C306.25 176.61 299.64 214.05 305.15 248.91C305.88 252.95 307.26 257.63 309.28 262.95C311.29 268.27 315.06 272.58 320.57 275.89C327.18 279.93 334.51 283.79 342.59 287.45C350.66 291.12 359.29 292.96 368.46 292.96C371.39 292.96 374.15 292.78 376.72 292.41C379.28 292.05 382.04 291.5 384.98 290.76C395.25 287.83 405.9 283.52 416.91 277.82C427.92 272.13 437.83 264.7 446.64 255.52C455.45 246.35 462.69 235.15 468.39 221.94C474.08 208.73 476.92 192.76 476.92 174.04C478.02 146.88 469.21 126.14 450.5 111.83C439.48 103 424.24 98.6 404.79 98.6Z" fill="#FF452B"/>
<path d="M791.83 161.09C776.83 210.86 749.04 254.1 708.47 290.83C697.59 300.92 685.86 307.98 673.28 312.04C660.7 316.1 647.55 318.13 633.85 318.12C622.79 318.17 613.29 315.79 605.34 310.99C597.38 306.18 590.5 299.97 584.68 292.36C577.02 281.86 572.21 270.71 570.26 258.91C565.45 234.44 564.24 210.08 566.6 185.84C568.96 161.6 574.04 137.16 581.86 112.51C582.37 110.74 582.93 109.07 583.58 107.51C584.21 105.95 584.97 104.32 585.84 102.6C588.85 96.06 592.22 91.61 595.94 89.25C599.66 86.89 604.71 85.87 611.1 86.16C619.3 86.76 625.71 89 630.31 92.89C634.91 96.79 637.02 102.03 636.66 108.64C636.27 112.66 635.52 116.6 634.41 120.49C633.3 124.39 632.18 128.28 631.07 132.17C627.58 145.68 624.26 159.3 621.1 173.04C617.93 186.78 615.87 200.61 614.94 214.53C614.73 221.91 615.03 229.18 615.84 236.34C616.65 243.51 617.95 250.57 619.77 257.53C623.2 272.16 633.09 276.17 649.45 269.58C662.64 264.7 673.7 257.69 682.58 248.59C691.47 239.48 699.52 229.6 706.77 218.92C720.42 197.81 731.31 176.35 739.46 154.53C747.6 132.72 751.82 109.98 752.11 86.33L752.29 79.7C752.31 75.63 752.85 71.74 753.92 68.02C754.98 64.31 758.1 61.39 763.28 59.27C767.52 57.74 771.13 57.77 774.1 59.36C777.07 60.95 779.8 62.7 782.32 64.58C791.82 71.31 797.13 80.69 798.26 92.72C799.69 103.7 799.99 114.3 799.16 124.52C798.31 134.75 795.87 146.94 791.83 161.09Z" fill="#FF452B"/>
<path d="M874.58 271.97H873.48C865.03 271.24 858.25 267.75 853.11 261.51C847.61 254.9 845.4 247.39 846.5 238.94C848.7 232.7 850.26 226.37 851.18 219.95C852.09 213.53 852.92 207.2 853.66 200.96C854.02 197.66 854.3 194.35 854.49 191.05C854.67 187.75 855.13 184.44 855.87 181.14C859.9 158.02 861.93 135.27 861.93 112.87C861.93 90.49 861.56 68.28 860.83 46.26V45.71C860.46 40.94 860.19 36.17 860 31.4C859.81 26.63 860.09 22.04 860.83 17.64C861.56 12.5 863.58 8.27999 866.89 4.97999C870.19 1.67999 874.41 0.019989 879.55 0.019989C882.85 0.019989 885.97 0.759989 888.91 2.21999C900.28 6.61999 908.54 14.33 913.68 25.34C914.41 27.18 915.24 29.01 916.16 30.85C917.07 32.69 917.9 34.52 918.64 36.36C921.57 42.61 924.6 49.02 927.72 55.63C930.83 62.24 933.31 69.03 935.15 76C937.71 84.08 940.74 91.78 944.23 99.12C947.71 106.47 951.11 113.8 954.42 121.14C956.62 125.18 958.82 129.4 961.03 133.8C963.23 138.2 965.24 142.61 967.09 147.01C970.02 153.99 974.98 157.47 981.95 157.47C988.19 157.47 993.32 154.36 997.37 148.11C1014.62 122.05 1026 93.61 1031.5 62.78C1031.86 60.95 1032.14 59.2 1032.33 57.55C1032.51 55.9 1032.79 54.16 1033.16 52.32C1033.16 50.49 1033.24 48.74 1033.43 47.09C1033.61 45.44 1033.89 43.7 1034.26 41.86C1037.19 29.39 1043.8 23.14 1054.08 23.14C1058.48 23.14 1062.34 24.06 1065.64 25.89C1084.72 33.24 1096.65 44.61 1101.43 60.02C1103.26 65.53 1105.1 71.03 1106.94 76.54C1108.77 82.05 1110.61 87.37 1112.44 92.51C1114.64 99.12 1116.93 105.82 1119.32 112.6C1121.7 119.4 1123.81 126.28 1125.65 133.24L1126.2 134.89C1131.33 152.51 1137.21 170.04 1143.82 187.47C1150.43 204.91 1160.33 221.15 1173.55 236.19C1179.79 243.17 1182.44 248.58 1181.53 252.43C1180.61 256.28 1179.6 258.95 1178.5 260.41C1176.3 264.08 1172.26 265.92 1166.39 265.92C1159.78 265.92 1153.54 263.54 1147.67 258.76C1133.36 248.49 1122.16 234.91 1114.09 218.02C1110.79 210.68 1107.85 203.16 1105.28 195.45C1102.71 187.74 1100.14 180.04 1097.57 172.33C1095.73 167.19 1093.99 162.06 1092.34 156.91C1090.69 151.77 1088.94 146.64 1087.11 141.49C1084.17 133.05 1078.48 128.83 1070.04 128.83C1063.8 128.83 1058.48 131.4 1054.08 136.54C1050.41 140.58 1047.75 144.89 1046.1 149.48C1044.45 154.07 1043.25 158.38 1042.52 162.42C1041.78 164.99 1041.23 167.47 1040.87 169.85C1040.5 172.24 1039.95 174.9 1039.22 177.83C1037.38 184.81 1035.64 191.87 1033.99 199.03C1032.34 206.19 1030.59 213.44 1028.76 220.78C1027.29 225.92 1025.64 229.23 1023.81 230.69C1021.97 232.16 1019.59 232.89 1016.65 232.89C1013.71 232.89 1011.33 232.71 1009.49 232.34C992.97 229.78 980.49 221.52 972.05 207.57C968.75 202.43 965.35 197.48 961.87 192.71C958.38 187.94 954.8 183.35 951.13 178.95L946.18 172.34C942.88 167.57 938.65 162.98 933.52 158.58C929.48 155.28 925.07 153.63 920.31 153.63C915.54 153.63 911.5 155.2 908.2 158.31C904.9 161.43 902.88 165.56 902.14 170.7C901.04 179.51 899.94 188.32 898.84 197.13C897.74 205.94 896.64 214.57 895.54 223L893.89 239.52C893.52 240.26 893.34 241.72 893.34 243.92C893.34 245.76 893.15 247.04 892.79 247.77C890.9 263.9 884.85 271.97 874.58 271.97Z" fill="#FF452B"/>
<path d="M274.21 390.63C277.22 394.93 280.35 399.1 283.59 403.11C286.82 407.14 289.92 411.04 292.89 414.83C316.22 446.76 343.77 468.75 375.55 480.82C407.32 492.89 442.29 497.45 480.44 494.49C507.38 492.2 533.85 487.89 559.87 481.59C585.87 475.29 611.37 466.48 636.35 455.15C650.12 449.61 663.61 443.59 676.77 437.08C689.94 430.59 701.87 422.15 712.6 411.8C721.49 403.7 730.13 395.49 738.49 387.17C746.85 378.87 754.34 369.49 760.94 359.06C767.19 350.21 773.38 345.59 779.49 345.2C785.61 344.83 792.58 347.81 800.43 354.17C804.4 357.87 806.6 361.74 807.03 365.79C807.45 369.86 807.12 373.99 806.02 378.2C803.01 388.78 798.51 397.19 792.5 403.46C778.87 420.27 763.91 435.42 747.62 448.91C731.34 462.41 714 474.47 695.62 485.11C665.14 502.65 633.88 516.43 601.85 526.44C569.82 536.45 536.55 543.26 502.05 546.86C499.51 547.13 497.12 547.51 494.86 547.99C492.6 548.49 490.18 548.61 487.59 548.36C439.28 552.38 395.82 546.14 357.17 529.66C318.53 513.19 284.83 485.16 256.08 445.59C246.59 433.25 240.21 418.78 236.94 402.2C233.57 384.61 241.05 377.67 259.39 381.4C264.57 381.9 269.51 384.97 274.21 390.63Z" fill="#FF452B"/>
</g>
<defs>
<clipPath id="clip0">
<rect width="1181.68" height="549.55" fill="white"/>
</clipPath>
</defs>
</svg>
